<?xml version="1.0" encoding="UTF-8" standalone="no"?>
<!-- Created with Inkscape (http://www.inkscape.org/) -->

<svg
   version="1.1"
   id="svg663"
   width="1920"
   height="1080"
   viewBox="0 0 1920 1080"
   sodipodi:docname="logoret_modelo2.svg"
   inkscape:version="1.2.1 (9c6d41e410, 2022-07-14)"
   xmlns:inkscape="http://www.inkscape.org/namespaces/inkscape"
   xmlns:sodipodi="http://sodipodi.sourceforge.net/DTD/sodipodi-0.dtd"
   xmlns="http://www.w3.org/2000/svg"
   xmlns:svg="http://www.w3.org/2000/svg">
  <defs
     id="defs667" />
  <sodipodi:namedview
     id="namedview665"
     pagecolor="#ffffff"
     bordercolor="#000000"
     borderopacity="0.25"
     inkscape:showpageshadow="2"
     inkscape:pageopacity="0.0"
     inkscape:pagecheckerboard="0"
     inkscape:deskcolor="#d1d1d1"
     showgrid="false"
     inkscape:zoom="1.1981299"
     inkscape:cx="986.53742"
     inkscape:cy="350.96361"
     inkscape:window-width="1920"
     inkscape:window-height="1001"
     inkscape:window-x="-9"
     inkscape:window-y="-9"
     inkscape:window-maximized="1"
     inkscape:current-layer="g669" />
  <g
     inkscape:groupmode="layer"
     inkscape:label="Image"
     id="g669">
    <path
       style="fill:#000000;stroke:#000000"
       d="m 691.33758,381.09555 -0.6879,45.05732 17.5414,18.57325 h 73.60509 l 17.19745,-17.5414 c -0.11928,-46.70362 -0.62906,-95.10342 1.03186,-144.80255 h -27.51593 v 131.04459 c 0,0 -8.59872,8.25477 -6.87898,7.56687 l -27.51592,0.34396 -13.07007,-0.34396 -7.22293,-6.87898 0.34395,-32.33121 z"
       id="path731"
       sodipodi:nodetypes="ccccccccsccccc" />
    <path
       style="fill:#000000;stroke:#000000"
       d="m 830.98093,281.00637 -19.2612,18.2293 1.0319,125.19745 18.5732,18.57325 h 96.3057 l 17.5414,-18.57325 c 0,0 -0.21617,-124.19025 -0.3439,-124.50955 l -0.68795,-1.71975 c 0,0 -17.19745,-17.5414 -16.85345,-17.19745 l 0.3439,0.34395 z"
       id="path809"
       sodipodi:nodetypes="ccccccscscc" />
    <path
       style="fill:#000000;stroke:#000000;stroke-width:1.46616"
       d="m 1218.7532,279.34284 44.9401,-1.11021 18.8042,-43.30037 18.4386,42.96241 40.5645,-0.48273 c 0,0 -6.8486,0 0,0 h 6.8486 l -35.8234,30.41158 12.1168,41.99696 -44.2522,-24.13619 -38.9843,26.06708 10.5363,-43.44511 z"
       id="path811"
       sodipodi:nodetypes="cccccsccccccc" />
    <path
       style="fill:#000000;stroke:#000000"
       d="m 956.73483,379.77257 -0.6879,45.05732 17.5414,18.57325 h 73.60507 l 17.1975,-17.5414 c -0.1193,-46.70362 -0.6291,-95.10342 1.0318,-144.80255 h -27.5159 v 131.04459 c 0,0 -8.5987,8.25477 -6.879,7.56687 l -27.5159,0.34396 -13.07009,-0.34396 -7.2229,-6.87898 0.3439,-32.33121 z"
       id="path731-8"
       sodipodi:nodetypes="ccccccccsccccc" />
    <path
       style="fill:#000000;stroke:#000000"
       d="m 1095.9844,280.39689 -19.2612,18.2293 1.0319,125.19745 18.5732,18.57325 h 96.3057 l 17.5414,-18.57325 c 0,0 -0.2162,-124.19025 -0.3439,-124.50955 l -0.688,-1.71975 c 0,0 -17.1974,-17.5414 -16.8534,-17.19745 l 0.3439,0.34395 z"
       id="path809-6"
       sodipodi:nodetypes="ccccccscscc" />
    <path
       style="fill:#000000;stroke:#000000;stroke-width:1.02369"
       d="m 1273.3314,388.58043 30.5895,-0.7951 12.7994,-31.0124 12.5506,30.7703 27.6111,-0.3457 c 0,0 -4.6617,0 0,0 h 4.6616 l -24.384,21.7812 8.2476,30.0789 -30.1211,-17.2867 -26.5355,18.6696 7.1717,-31.116 z"
       id="path811-5"
       sodipodi:nodetypes="cccccsccccccc" />
  </g>
</svg>
